<?xml version="1.0" encoding="UTF-8"?>
<svg id="_图层_1" data-name=" 图层 1" xmlns="http://www.w3.org/2000/svg" viewBox="0 0 18.19 18.19">
  <path d="M12.62,7.13c-.4-.03-.78,.06-1.12,.27-.16,.13-.39,.16-.58,.05-.25-.14-.34-.46-.21-.71,.15-.27,.23-.58,.23-.9,0-1.03-.84-1.87-1.87-1.87s-1.87,.84-1.87,1.87c0,.37,.11,.73,.31,1.03,0,.01,.02,.03,.03,.05,.55,.53,.89,1.27,.89,2.09,0,.92-.42,1.74-1.09,2.27h0c-.2,.36-.29,.76-.24,1.17,.06,.5,.31,.94,.71,1.25,.39,.31,.89,.44,1.38,.38,.5-.06,.94-.31,1.25-.71,.31-.4,.44-.89,.38-1.38-.04-.33-.17-.64-.36-.9-.13-.12-.25-.26-.35-.41-.17-.23-.11-.56,.12-.73,.23-.17,.56-.11,.73,.12,.04,.05,.08,.11,.12,.16,.03,.02,.07,.05,.1,.09,.02,.02,.04,.04,.05,.06,.31,.28,.7,.45,1.12,.48,1.03,.08,1.93-.7,2.01-1.73,.08-1.03-.7-1.93-1.73-2.01Z"/>
  <circle cx="5.51" cy="9.02" r="1.87"/>
  <path d="M9.09,0C4.07,0,0,4.07,0,9.09s4.07,9.09,9.09,9.09,9.09-4.07,9.09-9.09S14.12,0,9.09,0Zm6.3,9.22c-.06,.78-.41,1.49-1,1.99-.59,.51-1.34,.76-2.12,.7-.14-.01-.28-.03-.42-.06,0,0,0,.01,0,.02,.1,.77-.12,1.54-.59,2.15-.48,.61-1.17,1.01-1.94,1.1-.12,.01-.24,.02-.36,.02h0c-.65,0-1.27-.21-1.79-.62-.61-.48-1.01-1.17-1.1-1.94-.03-.24-.03-.47,0-.7-.18,.03-.37,.05-.56,.05-1.61,0-2.92-1.31-2.92-2.92s1.31-2.92,2.92-2.92c.23,0,.45,.03,.67,.08-.01-.11-.02-.22-.02-.33,0-1.61,1.31-2.92,2.92-2.92s2.92,1.31,2.92,2.92c0,.09,0,.19-.01,.28,.24-.04,.48-.05,.72-.04,1.6,.12,2.81,1.52,2.69,3.12Z"/>
</svg>